<svg width="132" height="82" viewBox="0 0 132 82" fill="none" xmlns="http://www.w3.org/2000/svg">
<path d="M95.95 2.04975C93.216 -0.68325 88.784 -0.68325 86.05 2.04975C83.317 4.78275 83.317 9.21575 86.05 11.9488L108.101 33.9988H7C3.134 33.9988 0 37.1328 0 40.9988C0 44.8648 3.134 47.9988 7 47.9988H108.1L86.049 70.0487C83.316 72.7817 83.316 77.2148 86.049 79.9478C87.416 81.3148 89.208 81.9977 90.999 81.9977C92.79 81.9977 94.582 81.3138 95.949 79.9478L129.949 45.9477C132.682 43.2147 132.682 38.7817 129.949 36.0487L95.95 2.04975Z" />
</svg>
