<svg width="132" height="82" viewBox="0 0 132 82" fill="none" xmlns="http://www.w3.org/2000/svg">
<path d="M36.0488 79.9481C38.7828 82.6811 43.2148 82.6811 45.9488 79.9481C48.6818 77.2151 48.6818 72.7821 45.9488 70.0491L23.8978 47.999L124.999 47.999C128.865 47.999 131.999 44.865 131.999 40.999C131.999 37.133 128.865 33.999 124.999 33.999L23.8988 33.999L45.9498 11.9491C48.6828 9.21606 48.6828 4.78304 45.9498 2.05004C44.5828 0.683041 42.7908 5.34058e-05 40.9998 5.34058e-05C39.2088 5.34058e-05 37.4168 0.684041 36.0498 2.05004L2.04977 36.0501C-0.683226 38.7831 -0.683226 43.2161 2.04977 45.9491L36.0488 79.9481Z" />
</svg>
