<svg width="50" height="50" viewBox="0 0 50 50" fill="none" xmlns="http://www.w3.org/2000/svg">
<path d="M14 18.9883L6.78516 25L14 31.0117C14.2393 31.2078 14.4374 31.4493 14.5828 31.7223C14.7283 31.9954 14.8183 32.2945 14.8476 32.6025C14.8769 32.9104 14.845 33.2212 14.7536 33.5167C14.6622 33.8123 14.5132 34.0868 14.3152 34.3245C14.1172 34.5622 13.8741 34.7584 13.6 34.9017C13.3258 35.0449 13.026 35.1325 12.7178 35.1594C12.4096 35.1862 12.0991 35.1518 11.8043 35.0581C11.5095 34.9643 11.2361 34.8132 11 34.6133L1.62501 26.8008C1.36096 26.5808 1.14852 26.3055 1.00273 25.9943C0.856944 25.6831 0.781372 25.3436 0.781372 25C0.781372 24.6563 0.856944 24.3169 1.00273 24.0057C1.14852 23.6945 1.36096 23.4192 1.62501 23.1992L11 15.3867C11.4783 14.9948 12.0921 14.8077 12.7076 14.8663C13.3232 14.9248 13.8907 15.2243 14.2864 15.6994C14.6822 16.1745 14.8742 16.7868 14.8205 17.4028C14.7669 18.0189 14.4719 18.5887 14 18.9883ZM48.375 23.1992L39 15.3867C38.7639 15.1868 38.4905 15.0356 38.1957 14.9419C37.9009 14.8482 37.5904 14.8137 37.2822 14.8406C36.9741 14.8674 36.6742 14.955 36.4 15.0983C36.1259 15.2416 35.8828 15.4377 35.6848 15.6754C35.4868 15.9131 35.3378 16.1877 35.2464 16.4833C35.1551 16.7788 35.1231 17.0895 35.1524 17.3975C35.1817 17.7055 35.2717 18.0046 35.4172 18.2776C35.5626 18.5507 35.7607 18.7922 36 18.9883L43.2148 25L36 31.0117C35.7607 31.2078 35.5626 31.4493 35.4172 31.7223C35.2717 31.9954 35.1817 32.2945 35.1524 32.6025C35.1231 32.9104 35.1551 33.2212 35.2464 33.5167C35.3378 33.8123 35.4868 34.0868 35.6848 34.3245C35.8828 34.5622 36.1259 34.7584 36.4 34.9017C36.6742 35.0449 36.9741 35.1325 37.2822 35.1594C37.5904 35.1862 37.9009 35.1518 38.1957 35.0581C38.4905 34.9643 38.7639 34.8132 39 34.6133L48.375 26.8008C48.639 26.5808 48.8515 26.3055 48.9973 25.9943C49.1431 25.6831 49.2186 25.3436 49.2186 25C49.2186 24.6563 49.1431 24.3169 48.9973 24.0057C48.8515 23.6945 48.639 23.4192 48.375 23.1992ZM32.0508 5.60936C31.7615 5.50415 31.4543 5.45696 31.1467 5.4705C30.8392 5.48404 30.5373 5.55803 30.2583 5.68826C29.9794 5.81848 29.7288 6.00239 29.521 6.22947C29.3131 6.45655 29.152 6.72236 29.0469 7.01171L16.5469 41.3867C16.335 41.9708 16.3637 42.615 16.6266 43.178C16.8896 43.7409 17.3653 44.1763 17.9492 44.3887C18.2056 44.4833 18.4767 44.5316 18.75 44.5312C19.2312 44.5313 19.7008 44.3833 20.0949 44.1072C20.4891 43.8312 20.7887 43.4405 20.9531 42.9883L33.4531 8.61327C33.5583 8.32395 33.6055 8.01674 33.592 7.70919C33.5785 7.40164 33.5045 7.09976 33.3742 6.82081C33.244 6.54186 33.0601 6.2913 32.833 6.08343C32.6059 5.87557 32.3401 5.71448 32.0508 5.60936Z" />
</svg>
