<svg width="37" height="37" viewBox="0 0 37 37" fill="none" xmlns="http://www.w3.org/2000/svg">
<path d="M13.424 34.595C13.1874 34.4951 12.9908 34.3193 12.8652 34.0953C12.7395 33.8712 12.6921 33.6118 12.7303 33.3578L14.8347 19.6562H9.24997C9.07292 19.661 8.89714 19.625 8.7362 19.5511C8.57525 19.4772 8.43344 19.3672 8.32171 19.2298C8.20998 19.0924 8.13132 18.9311 8.09179 18.7585C8.05226 18.5858 8.05292 18.4064 8.09372 18.234L11.5625 3.2028C11.6235 2.94411 11.7718 2.71435 11.9824 2.55219C12.193 2.39003 12.453 2.30538 12.7187 2.31249H24.2812C24.454 2.3119 24.6246 2.35002 24.7807 2.42406C24.9368 2.49809 25.0743 2.60615 25.1831 2.7403C25.2935 2.87596 25.3716 3.03489 25.4117 3.20513C25.4517 3.37537 25.4526 3.55247 25.4143 3.72311L23.414 12.7187H28.9062C29.1229 12.7183 29.3354 12.7788 29.5194 12.8933C29.7034 13.0077 29.8515 13.1716 29.9468 13.3662C30.0297 13.553 30.0616 13.7584 30.0392 13.9615C30.0169 14.1646 29.9411 14.3582 29.8197 14.5225L14.7884 34.1787C14.6868 34.3293 14.5512 34.4539 14.3925 34.5423C14.2338 34.6306 14.0565 34.6804 13.875 34.6875C13.7203 34.6843 13.5675 34.653 13.424 34.595Z" fill="#FF7C33"/>
</svg>
