<svg width="13" height="13" viewBox="0 0 13 13" fill="none" xmlns="http://www.w3.org/2000/svg">
<g clip-path="url(#clip0_215_34)">
<path d="M1.75 1H5.25C5.44891 1 5.63968 1.07902 5.78033 1.21967C5.92098 1.36032 6 1.55109 6 1.75C6 1.94891 5.92098 2.13968 5.78033 2.28033C5.63968 2.42098 5.44891 2.5 5.25 2.5H1.75C1.6837 2.5 1.62011 2.52634 1.57322 2.57322C1.52634 2.62011 1.5 2.6837 1.5 2.75V11.25C1.5 11.388 1.612 11.5 1.75 11.5H10.25C10.3163 11.5 10.3799 11.4737 10.4268 11.4268C10.4737 11.3799 10.5 11.3163 10.5 11.25V7.75C10.5 7.55109 10.579 7.36032 10.7197 7.21967C10.8603 7.07902 11.0511 7 11.25 7C11.4489 7 11.6397 7.07902 11.7803 7.21967C11.921 7.36032 12 7.55109 12 7.75V11.25C12 11.7141 11.8156 12.1592 11.4874 12.4874C11.1592 12.8156 10.7141 13 10.25 13H1.75C1.28587 13 0.840752 12.8156 0.512563 12.4874C0.184375 12.1592 0 11.7141 0 11.25V2.75C0 1.784 0.784 1 1.75 1ZM8.604 4.00325e-07H12.75C12.8163 4.00325e-07 12.8799 0.0263397 12.9268 0.0732238C12.9737 0.120108 13 0.183696 13 0.25V4.396C13.0001 4.44551 12.9855 4.49393 12.958 4.53513C12.9305 4.57632 12.8915 4.60843 12.8457 4.62739C12.8 4.64635 12.7497 4.6513 12.7011 4.64162C12.6525 4.63194 12.608 4.60805 12.573 4.573L11.03 3.03L7.28 6.78C7.13785 6.91264 6.94975 6.9849 6.75536 6.98155C6.56097 6.97819 6.37548 6.89947 6.238 6.762C6.10053 6.62452 6.02181 6.43903 6.01846 6.24464C6.0151 6.05025 6.08736 5.86215 6.22 5.72L9.97 1.97L8.427 0.427C8.39195 0.392036 8.36806 0.34745 8.35838 0.298896C8.3487 0.250342 8.35365 0.200005 8.37261 0.154269C8.39157 0.108532 8.42368 0.0694546 8.46487 0.0419903C8.50607 0.014526 8.55449 -8.81823e-05 8.604 4.00325e-07Z"/>
</g>
<defs>
<clipPath id="clip0_215_34">
<rect width="13" height="13" fill="white"/>
</clipPath>
</defs>
</svg>
