<svg width="50" height="35" viewBox="0 0 50 35" fill="none" xmlns="http://www.w3.org/2000/svg">
<path d="M9.375 11.1364C11.1009 11.1364 12.5 9.71182 12.5 7.95455C12.5 6.19728 11.1009 4.77274 9.375 4.77274C7.64911 4.77274 6.25 6.19728 6.25 7.95455C6.25 9.71182 7.64911 11.1364 9.375 11.1364Z" />
<path d="M9.375 20.6818C11.1009 20.6818 12.5 19.2573 12.5 17.5C12.5 15.7427 11.1009 14.3182 9.375 14.3182C7.64911 14.3182 6.25 15.7427 6.25 17.5C6.25 19.2573 7.64911 20.6818 9.375 20.6818Z" />
<path d="M9.375 30.2273C11.1009 30.2273 12.5 28.8027 12.5 27.0455C12.5 25.2882 11.1009 23.8636 9.375 23.8636C7.64911 23.8636 6.25 25.2882 6.25 27.0455C6.25 28.8027 7.64911 30.2273 9.375 30.2273Z" />
<path d="M42.1875 9.54547H20.3125C19.4375 9.54547 18.75 8.84547 18.75 7.95456C18.75 7.06365 19.4375 6.36365 20.3125 6.36365H42.1875C43.0625 6.36365 43.75 7.06365 43.75 7.95456C43.75 8.84547 43.0625 9.54547 42.1875 9.54547ZM42.1875 19.0909H20.3125C19.4375 19.0909 18.75 18.3909 18.75 17.5C18.75 16.6091 19.4375 15.9091 20.3125 15.9091H42.1875C43.0625 15.9091 43.75 16.6091 43.75 17.5C43.75 18.3909 43.0625 19.0909 42.1875 19.0909ZM42.1875 28.6364H20.3125C19.4375 28.6364 18.75 27.9364 18.75 27.0455C18.75 26.1546 19.4375 25.4546 20.3125 25.4546H42.1875C43.0625 25.4546 43.75 26.1546 43.75 27.0455C43.75 27.9364 43.0625 28.6364 42.1875 28.6364Z" />
</svg>
