<svg width="60" height="60" viewBox="0 0 60 60" fill="none" xmlns="http://www.w3.org/2000/svg">
<path d="M3.75 45C6.50391 45 9.16016 44.6484 11.7187 43.9453C14.2773 43.2422 16.6602 42.2266 18.8672 40.8984C21.0742 39.5703 23.0957 38.0078 24.9316 36.2109C26.7676 34.4141 28.3398 32.3926 29.6484 30.1465C30.957 27.9004 31.9629 25.5078 32.666 22.9688C33.3691 20.4297 33.7305 17.7734 33.75 15C33.75 12.4023 33.418 9.85352 32.7539 7.35352C32.0898 4.85352 31.123 2.48047 29.8535 0.234375C32.3535 0.546875 34.7461 1.14258 37.0312 2.02148C39.3164 2.90039 41.4355 4.02344 43.3887 5.39062C45.3418 6.75781 47.1094 8.33008 48.6914 10.1074C50.2734 11.8848 51.6211 13.8281 52.7344 15.9375C53.8477 18.0469 54.7168 20.2832 55.3418 22.6465C55.9668 25.0098 56.2695 27.4609 56.25 30C56.25 32.7539 55.8984 35.4102 55.1953 37.9688C54.4922 40.5273 53.4766 42.9102 52.1484 45.1172C50.8203 47.3242 49.2578 49.3457 47.4609 51.1816C45.6641 53.0176 43.6426 54.5898 41.3965 55.8984C39.1504 57.207 36.7578 58.2129 34.2187 58.916C31.6797 59.6191 29.0234 59.9805 26.25 60C23.5547 60 20.9277 59.6484 18.3691 58.9453C15.8105 58.2422 13.4082 57.2363 11.1621 55.9277C8.91602 54.6191 6.8457 53.0176 4.95117 51.123C3.05664 49.2285 1.45508 47.1094 0.146484 44.7656C0.751953 44.8438 1.34766 44.9023 1.93359 44.9414C2.51953 44.9805 3.125 45 3.75 45ZM26.25 56.25C28.6719 56.25 30.9961 55.9375 33.2227 55.3125C35.4492 54.6875 37.5391 53.8086 39.4922 52.6758C41.4453 51.543 43.2129 50.1758 44.7949 48.5742C46.377 46.9727 47.7441 45.2051 48.8965 43.2715C50.0488 41.3379 50.9375 39.248 51.5625 37.002C52.1875 34.7559 52.5 32.4219 52.5 30C52.5 27.3438 52.1094 24.7754 51.3281 22.2949C50.5469 19.8145 49.4531 17.5098 48.0469 15.3809C46.6406 13.252 44.9219 11.3574 42.8906 9.69727C40.8594 8.03711 38.623 6.70898 36.1816 5.71289C37.0605 8.74023 37.5 11.8359 37.5 15C37.5 17.8516 37.1582 20.6055 36.4746 23.2617C35.791 25.918 34.8145 28.4375 33.5449 30.8203C32.2754 33.2031 30.7422 35.4004 28.9453 37.4121C27.1484 39.4238 25.1465 41.2012 22.9395 42.7441C20.7324 44.2871 18.3496 45.5469 15.791 46.5234C13.2324 47.5 10.5273 48.1641 7.67578 48.5156C10.1758 51.0156 13.0078 52.9297 16.1719 54.2578C19.3359 55.5859 22.6953 56.25 26.25 56.25Z" fill="#333333"/>
</svg>
