<svg width="51" height="51" viewBox="0 0 51 51" fill="none" xmlns="http://www.w3.org/2000/svg">
<path d="M29.5093 29.3599C28.0483 28.1147 26.4297 27.1602 24.6533 26.4961C22.877 25.832 21.0342 25.5 19.125 25.5C17.6641 25.5 16.2529 25.6909 14.8916 26.0728C13.5303 26.4546 12.2603 26.9858 11.0815 27.6665C9.90283 28.3472 8.83203 29.1772 7.86914 30.1567C6.90625 31.1362 6.07617 32.2153 5.37891 33.394C4.68164 34.5728 4.14209 35.8428 3.76025 37.2041C3.37842 38.5654 3.1875 39.9766 3.1875 41.4375H0C0 39.4453 0.290527 37.5278 0.871582 35.6851C1.45264 33.8423 2.29102 32.1406 3.38672 30.5801C4.48242 29.0195 5.77734 27.6333 7.27148 26.4214C8.76562 25.2095 10.459 24.2549 12.3516 23.5576C10.4756 22.3291 9.01465 20.7852 7.96875 18.9258C6.92285 17.0664 6.3916 15.0078 6.375 12.75C6.375 10.9902 6.70703 9.33838 7.37109 7.79443C8.03516 6.25049 8.93994 4.89746 10.0854 3.73535C11.231 2.57324 12.584 1.66016 14.1445 0.996094C15.7051 0.332031 17.3652 0 19.125 0C20.8848 0 22.5366 0.332031 24.0806 0.996094C25.6245 1.66016 26.9775 2.56494 28.1396 3.71045C29.3018 4.85596 30.2148 6.20898 30.8789 7.76953C31.543 9.33008 31.875 10.9902 31.875 12.75C31.875 13.8457 31.7422 14.9165 31.4766 15.9624C31.2109 17.0083 30.8125 17.9961 30.2812 18.9258C29.75 19.8555 29.1274 20.7104 28.4136 21.4907C27.6997 22.271 26.8613 22.96 25.8984 23.5576C26.9775 23.9727 28.0068 24.479 28.9863 25.0767C29.9658 25.6743 30.8872 26.3467 31.7505 27.0938L29.5093 29.3599ZM9.5625 12.75C9.5625 14.0781 9.81152 15.3149 10.3096 16.4604C10.8076 17.606 11.4883 18.6187 12.3516 19.4985C13.2148 20.3784 14.2275 21.0674 15.3896 21.5654C16.5518 22.0635 17.7969 22.3125 19.125 22.3125C20.4365 22.3125 21.6733 22.0635 22.8354 21.5654C23.9976 21.0674 25.0103 20.3867 25.8735 19.5234C26.7368 18.6602 27.4258 17.6475 27.9404 16.4854C28.4551 15.3232 28.7041 14.0781 28.6875 12.75C28.6875 11.4385 28.4385 10.2017 27.9404 9.03955C27.4424 7.87744 26.7617 6.86475 25.8984 6.00146C25.0352 5.13818 24.0142 4.44922 22.8354 3.93457C21.6567 3.41992 20.4199 3.1709 19.125 3.1875C17.7969 3.1875 16.5601 3.43652 15.4146 3.93457C14.269 4.43262 13.2563 5.11328 12.3765 5.97656C11.4966 6.83984 10.8076 7.86084 10.3096 9.03955C9.81152 10.2183 9.5625 11.4551 9.5625 12.75ZM43.0312 19.125C44.127 19.125 45.1562 19.3325 46.1191 19.7476C47.082 20.1626 47.9204 20.7354 48.6343 21.4658C49.3481 22.1963 49.9209 23.043 50.3525 24.0059C50.7842 24.9688 51 25.998 51 27.0938C51 28.1895 50.7925 29.2187 50.3774 30.1816C49.9624 31.1445 49.3896 31.9912 48.6592 32.7217C47.9287 33.4521 47.082 34.0249 46.1191 34.4399C45.1562 34.855 44.127 35.0625 43.0312 35.0625C42.6494 35.0625 42.2759 35.0376 41.9106 34.9878L27.293 49.6055C26.8447 50.0537 26.3301 50.394 25.749 50.6265C25.168 50.8589 24.5537 50.9834 23.9062 51C23.2422 51 22.6196 50.8755 22.0386 50.6265C21.4575 50.3774 20.9512 50.0371 20.5195 49.6055C20.0879 49.1738 19.7476 48.6675 19.4985 48.0864C19.2495 47.5054 19.125 46.8828 19.125 46.2188C19.125 45.5879 19.2412 44.9819 19.4736 44.4009C19.7061 43.8198 20.0547 43.2969 20.5195 42.832L35.1372 28.2144C35.0874 27.8491 35.0625 27.4756 35.0625 27.0938C35.0625 25.998 35.27 24.9688 35.6851 24.0059C36.1001 23.043 36.6646 22.2046 37.3784 21.4907C38.0923 20.7769 38.939 20.2041 39.9185 19.7725C40.8979 19.3408 41.9355 19.125 43.0312 19.125ZM43.0312 31.875C43.6953 31.875 44.3179 31.7505 44.8989 31.5015C45.48 31.2524 45.9863 30.9121 46.418 30.4805C46.8496 30.0488 47.1899 29.5425 47.439 28.9614C47.688 28.3804 47.8125 27.7578 47.8125 27.0938C47.8125 26.4131 47.6548 25.7324 47.3394 25.0518L43.7036 28.6875H41.4375V26.4214L45.0732 22.7856C44.3926 22.4702 43.7119 22.3125 43.0312 22.3125C42.3672 22.3125 41.7446 22.437 41.1636 22.686C40.5825 22.9351 40.0762 23.2754 39.6445 23.707C39.2129 24.1387 38.8726 24.645 38.6235 25.2261C38.3745 25.8071 38.25 26.4297 38.25 27.0938C38.25 27.7744 38.4077 28.4551 38.7231 29.1357L22.7856 45.0981C22.4702 45.4136 22.3125 45.7871 22.3125 46.2188C22.3125 46.6504 22.4702 47.0239 22.7856 47.3394C23.1011 47.6548 23.4746 47.8125 23.9062 47.8125C24.3379 47.8125 24.7114 47.6548 25.0269 47.3394L40.9893 31.4019C41.6699 31.7173 42.3506 31.875 43.0312 31.875Z" />
</svg>
