<svg width="938" height="669" viewBox="0 0 938 669" fill="none" xmlns="http://www.w3.org/2000/svg">
<path d="M630.933 160.672C630.933 160.672 647.656 126.244 671.756 123.784C695.857 121.325 709.136 135.589 717.006 149.36C717.006 149.36 731.27 110.013 764.715 117.881C798.161 125.751 800.128 151.327 800.128 151.327C800.128 151.327 810.948 142.474 823.736 147.393C836.525 152.311 838.982 160.672 838.982 160.672C838.982 160.672 859.639 155.261 865.05 171.001H591.586C591.586 171.001 597.488 154.771 630.933 160.672Z" fill="url(#paint0_linear_221_39)"/>
<path d="M742.648 143.922C744.289 130.374 751.809 121.977 758.915 116.968C729.615 114.593 717.005 149.361 717.005 149.361C709.135 135.59 695.856 121.327 671.755 123.786C647.655 126.245 630.932 160.674 630.932 160.674C597.486 154.771 591.585 171.003 591.585 171.003H751.513C745.736 163.758 741.359 154.568 742.648 143.922Z" fill="url(#paint1_linear_221_39)"/>
<path d="M340.536 122.802C340.536 122.802 301.517 100.177 249.382 94.2746C197.246 88.3717 127.526 113.949 106.809 161.166C86.0913 208.382 114.618 297.898 127.405 342.163C140.194 386.428 151.014 468.075 141.177 510.373C131.34 552.671 128.388 668.746 256.267 668.746C384.146 668.746 449.413 601.842 485.466 583.166C521.518 564.489 644.822 550.704 742.207 530.047C839.592 509.39 871.069 379.307 852.379 311.06C833.689 242.812 784.505 184.776 670.397 188.71C556.291 192.642 395.294 157.23 340.536 122.802Z" fill="#B0B6F4"/>
<path d="M280.858 600.542C280.858 600.542 196.261 565.129 162.161 489.713C128.06 414.297 107.731 343.144 129.372 299.371C151.013 255.598 177.193 258.22 223.78 235.924C270.367 213.627 316.272 139.523 350.373 126.244C384.474 112.964 516.944 83.7808 608.754 154.606C700.563 225.431 692.521 231.662 709.002 308.061C725.484 384.46 759.421 446.924 752.043 485.779C744.666 524.634 726.14 563.325 634.329 563.162C634.329 563.162 577.603 565.785 522.19 588.738C466.775 611.691 439.346 621.81 396.278 622.838C345.454 624.052 294.631 609.724 280.858 600.542Z" fill="#E5EEFF"/>
<path d="M491.373 485.779H344.036C333.048 485.779 324.141 476.872 324.141 465.884V132.859C324.141 121.872 333.048 112.964 344.036 112.964H491.373C502.361 112.964 511.268 121.872 511.268 132.859V465.886C511.268 476.872 502.361 485.779 491.373 485.779Z" fill="url(#paint2_linear_221_39)"/>
<path d="M486.129 226.743H347.744C343.764 226.743 340.538 223.517 340.538 219.537V195.914C340.538 191.934 343.764 188.708 347.744 188.708H486.129C490.108 188.708 493.334 191.934 493.334 195.914V219.537C493.334 223.517 490.108 226.743 486.129 226.743Z" fill="url(#paint3_linear_221_39)"/>
<path d="M400.539 197.232H481.201" stroke="#E5EEFF" stroke-miterlimit="10" stroke-linecap="round"/>
<path d="M400.539 204.119H481.201" stroke="#E5EEFF" stroke-miterlimit="10" stroke-linecap="round"/>
<path d="M400.539 212.315H481.201" stroke="#E5EEFF" stroke-miterlimit="10" stroke-linecap="round"/>
<path d="M400.539 220.513H434.969" stroke="#E5EEFF" stroke-miterlimit="10" stroke-linecap="round"/>
<path d="M382.328 209.962C383.745 201.202 377.793 192.951 369.034 191.534C360.274 190.117 352.025 196.07 350.607 204.83C349.19 213.591 355.142 221.841 363.902 223.258C372.661 224.675 380.911 218.722 382.328 209.962Z" fill="#E5EEFF"/>
<path d="M366.274 207.726C369.172 207.726 371.521 205.377 371.521 202.48C371.521 199.582 369.172 197.233 366.274 197.233C363.377 197.233 361.028 199.582 361.028 202.48C361.028 205.377 363.377 207.726 366.274 207.726Z" fill="#6341CA"/>
<path d="M366.439 223.464C371.211 223.464 375.49 221.378 378.427 218.07C375.736 214.356 371.376 211.932 366.439 211.932C361.502 211.932 357.142 214.356 354.452 218.069C357.39 221.376 361.665 223.464 366.439 223.464Z" fill="#6341CA"/>
<path d="M486.128 280.518H347.743C343.764 280.518 340.538 277.292 340.538 273.312V249.689C340.538 245.709 343.764 242.483 347.743 242.483H486.128C490.108 242.483 493.334 245.709 493.334 249.689V273.312C493.334 277.292 490.108 280.518 486.128 280.518Z" fill="url(#paint4_linear_221_39)"/>
<path d="M400.539 251.007H481.201" stroke="#E5EEFF" stroke-miterlimit="10" stroke-linecap="round"/>
<path d="M400.539 257.892H481.201" stroke="#E5EEFF" stroke-miterlimit="10" stroke-linecap="round"/>
<path d="M400.539 266.09H481.201" stroke="#E5EEFF" stroke-miterlimit="10" stroke-linecap="round"/>
<path d="M400.539 274.288H434.969" stroke="#E5EEFF" stroke-miterlimit="10" stroke-linecap="round"/>
<path d="M366.439 277.238C375.312 277.238 382.505 270.045 382.505 261.172C382.505 252.298 375.312 245.105 366.439 245.105C357.566 245.105 350.373 252.298 350.373 261.172C350.373 270.045 357.566 277.238 366.439 277.238Z" fill="#E5EEFF"/>
<path d="M366.274 261.499C369.172 261.499 371.521 259.15 371.521 256.253C371.521 253.356 369.172 251.007 366.274 251.007C363.377 251.007 361.028 253.356 361.028 256.253C361.028 259.15 363.377 261.499 366.274 261.499Z" fill="#6341CA"/>
<path d="M366.439 277.239C371.211 277.239 375.49 275.153 378.427 271.845C375.736 268.131 371.376 265.707 366.439 265.707C361.502 265.707 357.142 268.131 354.452 271.843C357.39 275.151 361.665 277.239 366.439 277.239Z" fill="#6341CA"/>
<path d="M486.128 334.293H347.743C343.764 334.293 340.538 331.067 340.538 327.087V303.464C340.538 299.484 343.764 296.258 347.743 296.258H486.128C490.108 296.258 493.334 299.484 493.334 303.464V327.087C493.334 331.067 490.108 334.293 486.128 334.293Z" fill="url(#paint5_linear_221_39)"/>
<path d="M400.539 304.782H481.201" stroke="#E5EEFF" stroke-miterlimit="10" stroke-linecap="round"/>
<path d="M400.539 311.667H481.201" stroke="#E5EEFF" stroke-miterlimit="10" stroke-linecap="round"/>
<path d="M400.539 319.865H481.201" stroke="#E5EEFF" stroke-miterlimit="10" stroke-linecap="round"/>
<path d="M400.539 328.063H434.969" stroke="#E5EEFF" stroke-miterlimit="10" stroke-linecap="round"/>
<path d="M366.439 331.012C375.312 331.012 382.505 323.819 382.505 314.946C382.505 306.073 375.312 298.88 366.439 298.88C357.566 298.88 350.373 306.073 350.373 314.946C350.373 323.819 357.566 331.012 366.439 331.012Z" fill="#E5EEFF"/>
<path d="M366.274 315.274C369.172 315.274 371.521 312.925 371.521 310.028C371.521 307.131 369.172 304.782 366.274 304.782C363.377 304.782 361.028 307.131 361.028 310.028C361.028 312.925 363.377 315.274 366.274 315.274Z" fill="#6341CA"/>
<path d="M366.439 331.014C371.211 331.014 375.49 328.928 378.427 325.62C375.736 321.906 371.376 319.482 366.439 319.482C361.502 319.482 357.142 321.906 354.452 325.618C357.39 328.926 361.665 331.014 366.439 331.014Z" fill="#6341CA"/>
<path d="M486.128 388.066H347.743C343.764 388.066 340.538 384.84 340.538 380.861V357.239C340.538 353.259 343.764 350.033 347.743 350.033H486.128C490.108 350.033 493.334 353.259 493.334 357.239V380.861C493.334 384.84 490.108 388.066 486.128 388.066Z" fill="url(#paint6_linear_221_39)"/>
<path d="M400.539 358.557H481.201" stroke="#E5EEFF" stroke-miterlimit="10" stroke-linecap="round"/>
<path d="M400.539 365.442H481.201" stroke="#E5EEFF" stroke-miterlimit="10" stroke-linecap="round"/>
<path d="M400.539 373.64H481.201" stroke="#E5EEFF" stroke-miterlimit="10" stroke-linecap="round"/>
<path d="M400.539 381.837H434.969" stroke="#E5EEFF" stroke-miterlimit="10" stroke-linecap="round"/>
<path d="M372.544 383.588C380.75 380.214 384.668 370.826 381.294 362.619C377.92 354.411 368.532 350.493 360.326 353.866C352.119 357.24 348.201 366.628 351.575 374.835C354.949 383.043 364.337 386.962 372.544 383.588Z" fill="#E5EEFF"/>
<path d="M366.274 369.049C369.172 369.049 371.521 366.7 371.521 363.803C371.521 360.905 369.172 358.557 366.274 358.557C363.377 358.557 361.028 360.905 361.028 363.803C361.028 366.7 363.377 369.049 366.274 369.049Z" fill="#6341CA"/>
<path d="M366.439 384.789C371.211 384.789 375.49 382.702 378.427 379.395C375.736 375.681 371.376 373.256 366.439 373.256C361.502 373.256 357.142 375.681 354.452 379.393C357.39 382.701 361.665 384.789 366.439 384.789Z" fill="#6341CA"/>
<path d="M486.128 441.841H347.743C343.764 441.841 340.538 438.615 340.538 434.636V411.012C340.538 407.033 343.764 403.805 347.743 403.805H486.128C490.108 403.805 493.334 407.031 493.334 411.012V434.636C493.334 438.615 490.108 441.841 486.128 441.841Z" fill="url(#paint7_linear_221_39)"/>
<path d="M400.539 412.332H481.201" stroke="#E5EEFF" stroke-miterlimit="10" stroke-linecap="round"/>
<path d="M400.539 419.217H481.201" stroke="#E5EEFF" stroke-miterlimit="10" stroke-linecap="round"/>
<path d="M400.539 427.415H481.201" stroke="#E5EEFF" stroke-miterlimit="10" stroke-linecap="round"/>
<path d="M400.539 435.612H434.969" stroke="#E5EEFF" stroke-miterlimit="10" stroke-linecap="round"/>
<path d="M366.439 438.562C375.312 438.562 382.505 431.369 382.505 422.496C382.505 413.623 375.312 406.43 366.439 406.43C357.566 406.43 350.373 413.623 350.373 422.496C350.373 431.369 357.566 438.562 366.439 438.562Z" fill="#E5EEFF"/>
<path d="M366.274 422.824C369.172 422.824 371.521 420.475 371.521 417.578C371.521 414.68 369.172 412.332 366.274 412.332C363.377 412.332 361.028 414.68 361.028 417.578C361.028 420.475 363.377 422.824 366.274 422.824Z" fill="#6341CA"/>
<path d="M366.439 438.562C371.211 438.562 375.49 436.476 378.427 433.168C375.736 429.454 371.376 427.03 366.439 427.03C361.502 427.03 357.142 429.454 354.452 433.167C357.39 436.474 361.665 438.562 366.439 438.562Z" fill="#6341CA"/>
<path d="M511.268 139.523V132.858C511.268 121.87 502.361 112.963 491.373 112.963H344.036C333.048 112.963 324.141 121.87 324.141 132.858V139.523H511.268Z" fill="#6341CA"/>
<path d="M332.618 139.523L448.856 485.779H473.776L358.242 139.523H332.618Z" fill="url(#paint8_linear_221_39)"/>
<path d="M371.523 139.523L491.374 485.779C491.374 485.779 498.166 486.409 502.545 482.347L385.246 139.523H371.523Z" fill="url(#paint9_linear_221_39)"/>
<mask id="mask0_221_39" style="mask-type:luminance" maskUnits="userSpaceOnUse" x="120" y="108" width="634" height="515">
<path d="M280.858 600.542C280.858 600.542 196.261 565.129 162.161 489.713C128.06 414.297 107.731 343.144 129.372 299.371C151.013 255.598 177.193 258.22 223.78 235.924C270.367 213.627 316.272 139.523 350.373 126.244C384.474 112.964 516.944 83.7808 608.754 154.606C700.563 225.431 692.521 231.662 709.002 308.061C725.484 384.46 759.421 446.924 752.043 485.779C744.666 524.634 726.14 563.325 634.329 563.162C634.329 563.162 577.603 565.785 522.19 588.738C466.775 611.691 439.346 621.81 396.278 622.838C345.454 624.052 294.631 609.724 280.858 600.542Z" fill="white"/>
</mask>
<g mask="url(#mask0_221_39)">
<path d="M222.822 563.982C222.822 563.982 188.393 560.048 180.031 531.521C171.671 502.994 188.884 475.451 188.884 475.451C188.884 475.451 164.784 459.029 172.161 423.713C179.539 388.395 205.115 370.626 205.115 370.626C205.115 370.626 195.278 327.409 230.198 321.998C265.119 316.587 253.806 370.626 253.806 370.626C253.806 370.626 270.037 378.56 274.956 410.038C279.874 441.517 267.647 462.666 267.647 462.666C267.647 462.666 279.749 483.815 276.123 513.325C272.498 542.833 259.709 561.031 222.822 563.982Z" fill="url(#paint10_linear_221_39)"/>
<path d="M223.779 570.375V439.054" stroke="#6341CA" stroke-miterlimit="10"/>
<path d="M216.052 477.581C216.052 477.581 204.248 459.219 204.461 432.797C204.674 406.374 223.78 374.826 223.78 374.826C218.249 354.764 224.032 335.332 230.285 321.986C230.257 321.99 230.228 321.992 230.199 321.997C195.279 327.407 205.116 370.625 205.116 370.625C205.116 370.625 179.54 388.395 172.163 423.711C164.785 459.029 188.885 475.45 188.885 475.45C188.885 475.45 171.67 502.992 180.033 531.519C188.393 560.046 222.823 563.981 222.823 563.981C224.135 563.875 225.409 563.747 226.661 563.603C193.977 535.354 216.052 477.581 216.052 477.581Z" fill="url(#paint11_linear_221_39)"/>
</g>
<mask id="mask1_221_39" style="mask-type:luminance" maskUnits="userSpaceOnUse" x="120" y="108" width="634" height="515">
<path d="M280.858 600.542C280.858 600.542 196.261 565.129 162.161 489.713C128.06 414.297 107.731 343.144 129.372 299.371C151.013 255.598 177.193 258.22 223.78 235.924C270.367 213.627 316.272 139.523 350.373 126.244C384.474 112.964 516.944 83.7808 608.754 154.606C700.563 225.431 692.521 231.662 709.002 308.061C725.484 384.46 759.421 446.924 752.043 485.779C744.666 524.634 726.14 563.325 634.329 563.162C634.329 563.162 577.603 565.785 522.19 588.738C466.775 611.691 439.346 621.81 396.278 622.838C345.454 624.052 294.631 609.724 280.858 600.542Z" fill="white"/>
</mask>
<g mask="url(#mask1_221_39)">
<path d="M661.217 540.21C661.217 540.21 610.721 531.029 614.655 485.78C618.59 440.531 636.297 426.759 632.361 395.938C628.427 365.116 636.295 308.062 672.364 308.062C708.432 308.062 703.843 349.707 695.318 369.871C686.792 390.036 685.481 403.151 694.662 424.137C703.843 445.122 719.583 478.567 698.597 511.357C677.611 544.148 661.217 540.21 661.217 540.21Z" fill="url(#paint12_linear_221_39)"/>
<path d="M648.873 531.519C647.561 505.45 667.235 465.779 661.72 445.704C656.205 425.63 653.464 413.971 661.72 365.442C666.825 335.448 678.745 319.243 687.109 311.231C683.196 309.226 678.351 308.061 672.367 308.061C636.299 308.061 628.429 365.115 632.363 395.936C636.297 426.758 618.592 440.529 614.657 485.779C611.866 517.875 636.448 531.812 650.982 537.211C649.735 535.675 648.988 533.8 648.873 531.519Z" fill="url(#paint13_linear_221_39)"/>
<path d="M661.72 398.56V564.474" stroke="#6341CA" stroke-miterlimit="10"/>
</g>
<path d="M361.029 320.522C361.029 320.522 359.554 336.917 350.372 356.589C341.191 376.264 332.01 394.624 332.01 394.624C332.01 394.624 351.974 418.233 354.451 439.874C356.928 461.515 358.24 485.779 358.24 485.779L295.94 545.455C295.94 545.455 276.923 477.254 270.365 448.399C263.807 419.545 269.053 397.248 286.76 367.737C304.467 338.227 330.042 303.47 343.814 302.158C357.587 300.847 363.816 306.22 361.029 320.522Z" fill="#E5827C"/>
<path d="M280.859 600.542C280.859 600.542 297.909 565.785 295.942 545.455C293.975 525.126 358.242 485.779 358.242 485.779H491.373C491.373 485.779 484.809 543.488 410.05 576.277L396.278 622.839C396.278 622.839 318.682 624.807 280.859 600.542Z" fill="#E5827C"/>
<path d="M396.393 526.11C430.494 528.734 450.604 520.207 491.373 485.779H358.242C358.242 485.779 362.292 523.488 396.393 526.11Z" fill="#CE6363"/>
<path d="M522.189 588.738C522.189 588.738 521.533 544.145 518.91 531.684C516.287 519.224 494.646 507.42 484.154 489.058C473.661 470.696 455.954 410.363 455.954 386.754C455.954 363.146 457.266 338.226 473.661 339.538C490.057 340.849 498.582 415.609 516.287 418.888C533.993 422.167 535.305 370.916 530.714 339.488C526.123 308.059 504.77 272.647 494.462 249.695C484.154 226.742 502.969 213.627 511.268 220.513C519.566 227.398 523.501 239.203 523.501 239.203C523.501 239.203 553.01 259.532 564.815 268.057C576.619 276.582 607.44 296.912 614.655 305.437C621.868 313.962 639.575 343.473 648.101 386.099C656.626 428.725 650.068 479.878 641.543 503.484C633.017 527.093 631.706 527.748 633.017 540.209C634.329 552.668 634.329 563.162 634.329 563.162C634.329 563.162 581.866 565.786 522.189 588.738Z" fill="#E5827C"/>
<path d="M579.899 370.625C579.899 370.625 573.996 327.735 568.75 315.275C563.504 302.816 560.225 291.012 548.42 277.239C536.616 263.468 523.5 239.203 523.5 239.203" stroke="#BA5250" stroke-miterlimit="10"/>
<path d="M588.359 284.544C588.359 284.544 599.573 300.455 600.883 304.914C602.195 309.373 608.753 337.572 608.753 337.572" stroke="#BA5250" stroke-miterlimit="10"/>
<path d="M531.81 498.567C515.084 472.992 499.352 462.172 484.336 412.331C477.922 391.039 473.184 363.884 469.862 339.759C457.064 342.404 455.953 365.122 455.953 386.754C455.953 410.363 473.66 470.696 484.152 489.058C494.645 507.42 516.286 519.224 518.908 531.684C521.532 544.143 522.187 588.738 522.187 588.738C531.396 585.196 540.433 582.14 549.132 579.502C547.606 556.331 543.353 516.217 531.81 498.567Z" fill="#CE6363"/>
<path d="M530.714 339.489C534.671 366.576 534.232 408.355 522.704 417.291C532.112 412.501 543.613 396.539 545.586 363.803C548.045 322.979 533.29 289.534 518.534 265.707C509.13 250.521 500.686 234.015 495.795 224.033C491.408 229.335 489.344 238.301 494.462 249.695C504.772 272.648 526.125 308.061 530.714 339.489Z" fill="#CE6363"/>
<path d="M516.287 418.889C516.106 418.856 515.929 418.803 515.751 418.755C515.928 418.828 516.106 418.88 516.287 418.889Z" fill="#CE6363"/>
<path d="M165.44 632.348C186.99 632.348 204.459 614.878 204.459 593.329C204.459 571.779 186.99 554.309 165.44 554.309C143.89 554.309 126.421 571.779 126.421 593.329C126.421 614.878 143.89 632.348 165.44 632.348Z" fill="#FFDF9F"/>
<path d="M143.144 532.013C152.379 532.013 159.866 524.526 159.866 515.29C159.866 506.055 152.379 498.568 143.144 498.568C133.908 498.568 126.421 506.055 126.421 515.29C126.421 524.526 133.908 532.013 143.144 532.013Z" fill="#FFDF9F"/>
<path d="M187.737 234.421C196.973 234.421 204.46 226.934 204.46 217.699C204.46 208.463 196.973 200.976 187.737 200.976C178.501 200.976 171.014 208.463 171.014 217.699C171.014 226.934 178.501 234.421 187.737 234.421Z" fill="#FFDF9F"/>
<path d="M789.172 350.932C813.033 341.842 825.007 315.13 815.917 291.269C806.827 267.408 780.115 255.433 756.254 264.523C732.393 273.613 720.419 300.325 729.509 324.186C738.599 348.047 765.311 360.022 789.172 350.932Z" fill="#FFDF9F"/>
<path d="M787.782 245.762C793.94 245.762 798.931 240.771 798.931 234.613C798.931 228.456 793.94 223.464 787.782 223.464C781.625 223.464 776.633 228.456 776.633 234.613C776.633 240.771 781.625 245.762 787.782 245.762Z" fill="#FFDF9F"/>
<path d="M838.624 418.837C844.781 418.837 849.773 413.845 849.773 407.688C849.773 401.53 844.781 396.539 838.624 396.539C832.466 396.539 827.475 401.53 827.475 407.688C827.475 413.845 832.466 418.837 838.624 418.837Z" fill="#FFDF9F"/>
<path d="M412.017 197.232L433.658 112.963V36.256C433.658 29.1831 439.392 23.4493 446.465 23.4493H601.849C608.922 23.4493 614.656 29.1831 614.656 36.256V132.619C614.656 139.692 608.922 145.426 601.849 145.426H448.085L412.017 197.232Z" fill="url(#paint14_linear_221_39)"/>
<path d="M579.897 49.517H470.218V122.802H579.897V49.517Z" fill="#E5EEFF"/>
<path d="M525.058 86.1585L470.218 49.517H579.899L525.058 86.1585Z" fill="url(#paint15_linear_221_39)"/>
<path d="M612.057 48.4214C623.539 44.6439 629.785 32.2733 626.008 20.7908C622.23 9.30838 609.86 3.06229 598.377 6.83981C586.895 10.6173 580.649 22.988 584.426 34.4704C588.204 45.9529 600.574 52.199 612.057 48.4214Z" fill="#BC4D88"/>
<path d="M604.701 20.2835H604.636L600.863 22.3201L600.295 20.0828L605.036 17.545H607.539V39.2421H604.701V20.2835Z" fill="white"/>
<path d="M25.613 254.613C32.3132 254.613 37.7448 249.182 37.7448 242.482C37.7448 235.781 32.3132 230.35 25.613 230.35C18.9128 230.35 13.4812 235.781 13.4812 242.482C13.4812 249.182 18.9128 254.613 25.613 254.613Z" stroke="url(#paint16_linear_221_39)" stroke-miterlimit="10"/>
<path d="M704.45 87.1051C711.15 87.1051 716.581 81.6735 716.581 74.9733C716.581 68.2731 711.15 62.8415 704.45 62.8415C697.749 62.8415 692.318 68.2731 692.318 74.9733C692.318 81.6735 697.749 87.1051 704.45 87.1051Z" stroke="url(#paint17_linear_221_39)" stroke-miterlimit="10"/>
<path d="M922.329 380.998C923.405 374.385 918.916 368.152 912.303 367.076C905.69 366 899.457 370.489 898.38 377.102C897.304 383.715 901.793 389.948 908.406 391.024C915.019 392.1 921.253 387.612 922.329 380.998Z" stroke="url(#paint18_linear_221_39)" stroke-miterlimit="10"/>
<path d="M25.613 469.221C32.3132 469.221 37.7448 463.789 37.7448 457.089C37.7448 450.389 32.3132 444.957 25.613 444.957C18.9128 444.957 13.4812 450.389 13.4812 457.089C13.4812 463.789 18.9128 469.221 25.613 469.221Z" stroke="url(#paint19_linear_221_39)" stroke-miterlimit="10"/>
<path d="M100.452 346.272L82.7053 336.026L72.4591 353.772L90.2055 364.018L100.452 346.272Z" stroke="url(#paint20_linear_221_39)" stroke-miterlimit="10"/>
<path d="M81.4054 584.972L63.6589 574.726L53.4127 592.472L71.1592 602.719L81.4054 584.972Z" stroke="url(#paint21_linear_221_39)" stroke-miterlimit="10"/>
<path d="M863.739 502.405L845.992 492.159L835.746 509.905L853.492 520.151L863.739 502.405Z" stroke="url(#paint22_linear_221_39)" stroke-miterlimit="10"/>
<path d="M680.059 614.871L662.312 604.625L652.066 622.371L669.813 632.617L680.059 614.871Z" stroke="url(#paint23_linear_221_39)" stroke-miterlimit="10"/>
<path d="M879.019 213.947L861.272 203.701L851.026 221.447L868.773 231.693L879.019 213.947Z" stroke="url(#paint24_linear_221_39)" stroke-miterlimit="10"/>
<path d="M8.19775 370.688C8.19775 376.153 8.19775 381.618 8.19775 387.084C8.19775 388.308 9.23793 389.348 10.4623 389.348C11.6896 389.348 12.7268 388.311 12.7268 387.084C12.7268 381.618 12.7268 376.153 12.7268 370.688C12.7268 369.464 11.6866 368.424 10.4623 368.424C9.2334 368.424 8.19775 369.461 8.19775 370.688Z" fill="url(#paint25_linear_221_39)"/>
<path d="M2.26452 381.151C7.72957 381.151 13.1946 381.151 18.6597 381.151C19.884 381.151 20.9242 380.11 20.9242 378.886C20.9242 377.657 19.887 376.621 18.6597 376.621C13.1946 376.621 7.72957 376.621 2.26452 376.621C1.04017 376.621 0 377.662 0 378.886C0 380.115 1.03564 381.151 2.26452 381.151Z" fill="url(#paint26_linear_221_39)"/>
<path d="M925.178 485.779C925.178 491.244 925.178 496.709 925.178 502.174C925.178 503.398 926.218 504.439 927.443 504.439C928.67 504.439 929.707 503.401 929.707 502.174C929.707 496.709 929.707 491.244 929.707 485.779C929.707 484.555 928.667 483.514 927.443 483.514C926.215 483.514 925.178 484.552 925.178 485.779Z" fill="url(#paint27_linear_221_39)"/>
<path d="M919.245 496.241C924.71 496.241 930.175 496.241 935.64 496.241C936.865 496.241 937.905 495.201 937.905 493.977C937.905 492.748 936.869 491.712 935.64 491.712C930.175 491.712 924.71 491.712 919.245 491.712C918.021 491.712 916.98 492.752 916.98 493.977C916.98 495.205 918.018 496.241 919.245 496.241Z" fill="url(#paint28_linear_221_39)"/>
<path d="M549.436 610.439C549.436 615.904 549.436 621.37 549.436 626.835C549.436 628.059 550.476 629.099 551.7 629.099C552.929 629.099 553.965 628.063 553.965 626.835C553.965 621.37 553.965 615.904 553.965 610.439C553.965 609.215 552.923 608.175 551.7 608.175C550.471 608.175 549.436 609.212 549.436 610.439Z" fill="url(#paint29_linear_221_39)"/>
<path d="M543.503 620.902C548.968 620.902 554.433 620.902 559.898 620.902C561.122 620.902 562.162 619.861 562.162 618.637C562.162 617.408 561.125 616.373 559.898 616.373C554.433 616.373 548.968 616.373 543.503 616.373C542.278 616.373 541.238 617.413 541.238 618.637C541.238 619.866 542.274 620.902 543.503 620.902Z" fill="url(#paint30_linear_221_39)"/>
<path d="M97.2222 477.581C97.2222 483.046 97.2222 488.511 97.2222 493.977C97.2222 495.201 98.2623 496.241 99.4867 496.241C100.716 496.241 101.751 495.204 101.751 493.977C101.751 488.511 101.751 483.046 101.751 477.581C101.751 476.357 100.711 475.317 99.4867 475.317C98.2578 475.317 97.2222 476.354 97.2222 477.581Z" fill="url(#paint31_linear_221_39)"/>
<path d="M91.2892 488.043C96.7542 488.043 102.219 488.043 107.684 488.043C108.909 488.043 109.949 487.002 109.949 485.779C109.949 484.55 108.912 483.514 107.684 483.514C102.219 483.514 96.7542 483.514 91.2892 483.514C90.0648 483.514 89.0247 484.555 89.0247 485.779C89.0247 487.008 90.0618 488.043 91.2892 488.043Z" fill="url(#paint32_linear_221_39)"/>
<path d="M338.271 59.6395C338.271 65.1045 338.271 70.5696 338.271 76.0346C338.271 77.259 339.312 78.2991 340.536 78.2991C341.765 78.2991 342.801 77.2635 342.801 76.0346C342.801 70.5696 342.801 65.1045 342.801 59.6395C342.801 58.4151 341.76 57.3749 340.536 57.3749C339.307 57.3749 338.271 58.4121 338.271 59.6395Z" fill="url(#paint33_linear_221_39)"/>
<path d="M332.338 70.1016C337.804 70.1016 343.269 70.1016 348.734 70.1016C349.958 70.1016 350.998 69.0614 350.998 67.837C350.998 66.6082 349.963 65.5725 348.734 65.5725C343.269 65.5725 337.804 65.5725 332.338 65.5725C331.114 65.5725 330.074 66.6127 330.074 67.837C330.074 69.0659 331.11 70.1016 332.338 70.1016Z" fill="url(#paint34_linear_221_39)"/>
<path d="M908.084 288.059C908.084 293.524 908.084 298.989 908.084 304.454C908.084 305.678 909.125 306.719 910.349 306.719C911.576 306.719 912.614 305.681 912.614 304.454C912.614 298.989 912.614 293.524 912.614 288.059C912.614 286.835 911.573 285.794 910.349 285.794C909.12 285.794 908.084 286.832 908.084 288.059Z" fill="url(#paint35_linear_221_39)"/>
<path d="M902.151 298.521C907.616 298.521 913.081 298.521 918.546 298.521C919.771 298.521 920.811 297.481 920.811 296.257C920.811 295.028 919.775 293.992 918.546 293.992C913.081 293.992 907.616 293.992 902.151 293.992C900.928 293.992 899.887 295.032 899.887 296.257C899.887 297.485 900.922 298.521 902.151 298.521Z" fill="url(#paint36_linear_221_39)"/>
<path d="M20.3474 142.797H299.385C299.385 142.797 288.629 120.173 263.676 124.107C263.676 124.107 247.577 94.5961 222.986 102.466C222.986 102.466 203.312 69.0206 175.769 75.9063C148.227 82.7919 139.372 102.466 139.372 102.466C139.372 102.466 101.337 86.071 79.3684 120.173C79.3684 120.173 60.351 111.648 49.8572 132.305C49.8572 132.305 30.183 126.73 20.3474 142.797Z" fill="url(#paint37_linear_221_39)"/>
<path d="M124.241 116.841C133.422 106.292 159.867 108.885 159.867 108.885C156.748 96.8396 161.447 86.3941 167.614 78.506C146.456 86.7624 139.374 102.466 139.374 102.466C139.374 102.466 101.339 86.071 79.3704 120.173C79.3704 120.173 60.3529 111.648 49.8591 132.305C49.8591 132.305 30.1849 126.731 20.3494 142.797H116.945C114.351 133.97 117.873 124.159 124.241 116.841Z" fill="url(#paint38_linear_221_39)"/>
<defs>
<linearGradient id="paint0_linear_221_39" x1="591.586" y1="143.921" x2="865.05" y2="143.921" gradientUnits="userSpaceOnUse">
<stop stop-color="#C4A0F6"/>
<stop offset="1" stop-color="#877EFA"/>
</linearGradient>
<linearGradient id="paint1_linear_221_39" x1="591.586" y1="143.926" x2="758.916" y2="143.926" gradientUnits="userSpaceOnUse">
<stop stop-color="#C4A0F6"/>
<stop offset="1" stop-color="#877EFA"/>
</linearGradient>
<linearGradient id="paint2_linear_221_39" x1="417.704" y1="149.36" x2="417.704" y2="441.514" gradientUnits="userSpaceOnUse">
<stop stop-color="#C4A0F6"/>
<stop offset="1" stop-color="#877EFA"/>
</linearGradient>
<linearGradient id="paint3_linear_221_39" x1="340.536" y1="207.725" x2="493.335" y2="207.725" gradientUnits="userSpaceOnUse">
<stop stop-color="#A0C7FF"/>
<stop offset="1" stop-color="#BEB3FE"/>
</linearGradient>
<linearGradient id="paint4_linear_221_39" x1="340.536" y1="261.5" x2="493.334" y2="261.5" gradientUnits="userSpaceOnUse">
<stop stop-color="#A0C7FF"/>
<stop offset="1" stop-color="#BEB3FE"/>
</linearGradient>
<linearGradient id="paint5_linear_221_39" x1="340.536" y1="315.275" x2="493.334" y2="315.275" gradientUnits="userSpaceOnUse">
<stop stop-color="#A0C7FF"/>
<stop offset="1" stop-color="#BEB3FE"/>
</linearGradient>
<linearGradient id="paint6_linear_221_39" x1="340.536" y1="369.049" x2="493.334" y2="369.049" gradientUnits="userSpaceOnUse">
<stop stop-color="#A0C7FF"/>
<stop offset="1" stop-color="#BEB3FE"/>
</linearGradient>
<linearGradient id="paint7_linear_221_39" x1="340.536" y1="422.824" x2="493.334" y2="422.824" gradientUnits="userSpaceOnUse">
<stop stop-color="#A0C7FF"/>
<stop offset="1" stop-color="#BEB3FE"/>
</linearGradient>
<linearGradient id="paint8_linear_221_39" x1="403.197" y1="173.327" x2="403.197" y2="444.667" gradientUnits="userSpaceOnUse">
<stop stop-color="white" stop-opacity="0.7"/>
<stop offset="1" stop-color="#877EFA" stop-opacity="0"/>
</linearGradient>
<linearGradient id="paint9_linear_221_39" x1="437.034" y1="173.33" x2="437.034" y2="444.698" gradientUnits="userSpaceOnUse">
<stop stop-color="white" stop-opacity="0.7"/>
<stop offset="1" stop-color="#877EFA" stop-opacity="0"/>
</linearGradient>
<linearGradient id="paint10_linear_221_39" x1="223.78" y1="388.395" x2="223.78" y2="551.171" gradientUnits="userSpaceOnUse">
<stop stop-color="#7A74F6"/>
<stop offset="1" stop-color="#7752D3"/>
</linearGradient>
<linearGradient id="paint11_linear_221_39" x1="183.941" y1="440.741" x2="202.631" y2="441.725" gradientUnits="userSpaceOnUse">
<stop stop-color="#7A74F6"/>
<stop offset="1" stop-color="#7752D3"/>
</linearGradient>
<linearGradient id="paint12_linear_221_39" x1="614.437" y1="424.209" x2="709.002" y2="424.209" gradientUnits="userSpaceOnUse">
<stop stop-color="#7A74F6"/>
<stop offset="1" stop-color="#7752D3"/>
</linearGradient>
<linearGradient id="paint13_linear_221_39" x1="606.346" y1="398.901" x2="647.005" y2="415.296" gradientUnits="userSpaceOnUse">
<stop stop-color="#7A74F6"/>
<stop offset="1" stop-color="#7752D3"/>
</linearGradient>
<linearGradient id="paint14_linear_221_39" x1="412.017" y1="110.341" x2="614.656" y2="110.341" gradientUnits="userSpaceOnUse">
<stop stop-color="#A0C7FF"/>
<stop offset="1" stop-color="#BEB3FE"/>
</linearGradient>
<linearGradient id="paint15_linear_221_39" x1="470.218" y1="67.8375" x2="579.898" y2="67.8375" gradientUnits="userSpaceOnUse">
<stop stop-color="#C4A0F6"/>
<stop offset="1" stop-color="#877EFA"/>
</linearGradient>
<linearGradient id="paint16_linear_221_39" x1="12.7258" y1="242.482" x2="38.4995" y2="242.482" gradientUnits="userSpaceOnUse">
<stop stop-color="#C4A0F6"/>
<stop offset="1" stop-color="#877EFA"/>
</linearGradient>
<linearGradient id="paint17_linear_221_39" x1="691.563" y1="74.9727" x2="717.337" y2="74.9727" gradientUnits="userSpaceOnUse">
<stop stop-color="#C4A0F6"/>
<stop offset="1" stop-color="#877EFA"/>
</linearGradient>
<linearGradient id="paint18_linear_221_39" x1="908.285" y1="391.77" x2="912.425" y2="366.331" gradientUnits="userSpaceOnUse">
<stop stop-color="#C4A0F6"/>
<stop offset="1" stop-color="#877EFA"/>
</linearGradient>
<linearGradient id="paint19_linear_221_39" x1="12.7258" y1="457.089" x2="38.4995" y2="457.089" gradientUnits="userSpaceOnUse">
<stop stop-color="#C4A0F6"/>
<stop offset="1" stop-color="#877EFA"/>
</linearGradient>
<linearGradient id="paint20_linear_221_39" x1="80.9554" y1="340.495" x2="91.9559" y2="359.549" gradientUnits="userSpaceOnUse">
<stop stop-color="#C4A0F6"/>
<stop offset="1" stop-color="#877EFA"/>
</linearGradient>
<linearGradient id="paint21_linear_221_39" x1="61.9091" y1="579.196" x2="72.9095" y2="598.25" gradientUnits="userSpaceOnUse">
<stop stop-color="#C4A0F6"/>
<stop offset="1" stop-color="#877EFA"/>
</linearGradient>
<linearGradient id="paint22_linear_221_39" x1="844.243" y1="496.628" x2="855.243" y2="515.682" gradientUnits="userSpaceOnUse">
<stop stop-color="#C4A0F6"/>
<stop offset="1" stop-color="#877EFA"/>
</linearGradient>
<linearGradient id="paint23_linear_221_39" x1="660.562" y1="609.094" x2="671.562" y2="628.148" gradientUnits="userSpaceOnUse">
<stop stop-color="#C4A0F6"/>
<stop offset="1" stop-color="#877EFA"/>
</linearGradient>
<linearGradient id="paint24_linear_221_39" x1="859.522" y1="208.169" x2="870.523" y2="227.224" gradientUnits="userSpaceOnUse">
<stop stop-color="#C4A0F6"/>
<stop offset="1" stop-color="#877EFA"/>
</linearGradient>
<linearGradient id="paint25_linear_221_39" x1="9.70713" y1="378.886" x2="11.2168" y2="378.886" gradientUnits="userSpaceOnUse">
<stop stop-color="#C4A0F6"/>
<stop offset="1" stop-color="#877EFA"/>
</linearGradient>
<linearGradient id="paint26_linear_221_39" x1="2.26437" y1="378.886" x2="18.6591" y2="378.886" gradientUnits="userSpaceOnUse">
<stop stop-color="#C4A0F6"/>
<stop offset="1" stop-color="#877EFA"/>
</linearGradient>
<linearGradient id="paint27_linear_221_39" x1="926.688" y1="493.977" x2="928.198" y2="493.977" gradientUnits="userSpaceOnUse">
<stop stop-color="#C4A0F6"/>
<stop offset="1" stop-color="#877EFA"/>
</linearGradient>
<linearGradient id="paint28_linear_221_39" x1="919.246" y1="493.977" x2="935.64" y2="493.977" gradientUnits="userSpaceOnUse">
<stop stop-color="#C4A0F6"/>
<stop offset="1" stop-color="#877EFA"/>
</linearGradient>
<linearGradient id="paint29_linear_221_39" x1="550.945" y1="618.637" x2="552.455" y2="618.637" gradientUnits="userSpaceOnUse">
<stop stop-color="#C4A0F6"/>
<stop offset="1" stop-color="#877EFA"/>
</linearGradient>
<linearGradient id="paint30_linear_221_39" x1="543.503" y1="618.638" x2="559.897" y2="618.638" gradientUnits="userSpaceOnUse">
<stop stop-color="#C4A0F6"/>
<stop offset="1" stop-color="#877EFA"/>
</linearGradient>
<linearGradient id="paint31_linear_221_39" x1="98.7319" y1="485.779" x2="100.242" y2="485.779" gradientUnits="userSpaceOnUse">
<stop stop-color="#C4A0F6"/>
<stop offset="1" stop-color="#877EFA"/>
</linearGradient>
<linearGradient id="paint32_linear_221_39" x1="91.2895" y1="485.78" x2="107.684" y2="485.78" gradientUnits="userSpaceOnUse">
<stop stop-color="#C4A0F6"/>
<stop offset="1" stop-color="#877EFA"/>
</linearGradient>
<linearGradient id="paint33_linear_221_39" x1="339.781" y1="67.8373" x2="341.29" y2="67.8373" gradientUnits="userSpaceOnUse">
<stop stop-color="#C4A0F6"/>
<stop offset="1" stop-color="#877EFA"/>
</linearGradient>
<linearGradient id="paint34_linear_221_39" x1="332.338" y1="67.8375" x2="348.733" y2="67.8375" gradientUnits="userSpaceOnUse">
<stop stop-color="#C4A0F6"/>
<stop offset="1" stop-color="#877EFA"/>
</linearGradient>
<linearGradient id="paint35_linear_221_39" x1="909.594" y1="296.257" x2="911.103" y2="296.257" gradientUnits="userSpaceOnUse">
<stop stop-color="#C4A0F6"/>
<stop offset="1" stop-color="#877EFA"/>
</linearGradient>
<linearGradient id="paint36_linear_221_39" x1="902.151" y1="296.257" x2="918.545" y2="296.257" gradientUnits="userSpaceOnUse">
<stop stop-color="#C4A0F6"/>
<stop offset="1" stop-color="#877EFA"/>
</linearGradient>
<linearGradient id="paint37_linear_221_39" x1="20.347" y1="108.885" x2="299.385" y2="108.885" gradientUnits="userSpaceOnUse">
<stop stop-color="#C4A0F6"/>
<stop offset="1" stop-color="#877EFA"/>
</linearGradient>
<linearGradient id="paint38_linear_221_39" x1="20.3474" y1="110.652" x2="167.613" y2="110.652" gradientUnits="userSpaceOnUse">
<stop stop-color="#C4A0F6"/>
<stop offset="1" stop-color="#877EFA"/>
</linearGradient>
</defs>
</svg>
