<svg width="161" height="161" viewBox="0 0 161 161" fill="none" xmlns="http://www.w3.org/2000/svg">
<path d="M43.0776 76.7567C55.0934 80.9755 67.7676 83.0083 80.5 82.759C93.2327 83.0067 105.907 80.9721 117.922 76.7517C127.301 73.094 130.626 69.0287 130.626 66.6892V48.8031C127.347 50.9972 123.829 52.8133 120.141 54.2167C107.429 58.7678 94.0003 60.9869 80.5 60.7674C67.0012 60.9791 53.5741 58.7637 40.8588 54.2268C37.1686 52.8242 33.6507 51.0045 30.3737 48.8031V66.664C30.3737 69.0489 33.7094 73.094 43.0776 76.7567ZM43.0776 110.491C47.3219 112.11 51.6987 113.358 56.1588 114.219C64.1793 115.768 72.3315 116.531 80.5 116.499C88.6683 116.533 96.8205 115.771 104.841 114.224C109.301 113.363 113.678 112.115 117.922 110.496C127.301 106.839 130.626 102.773 130.626 100.434V83.3779C127.916 85.0089 125.068 86.3978 122.113 87.5286C108.759 92.2557 94.6639 94.5444 80.5 94.2856C66.3345 94.5364 52.2393 92.2391 38.8865 87.5035C35.9355 86.3657 33.0875 84.977 30.3737 83.3527V100.424C30.3737 102.768 33.7094 106.818 43.0776 110.491ZM80.5 150.937C108.172 150.937 130.626 142.163 130.626 131.346V117.072C128.161 118.558 125.578 119.841 122.903 120.906L122.113 121.223C108.762 125.964 94.6664 128.266 80.5 128.02C66.3328 128.277 52.2356 125.974 38.8865 121.223L38.0966 120.906C35.4221 119.841 32.8392 118.558 30.3737 117.072V131.346C30.3737 142.163 52.8281 150.937 80.5 150.937Z" />
<path d="M80.5 49.2459C108.184 49.2459 130.626 40.4744 130.626 29.6542C130.626 18.834 108.184 10.0625 80.5 10.0625C52.816 10.0625 30.3737 18.834 30.3737 29.6542C30.3737 40.4744 52.816 49.2459 80.5 49.2459Z" />
</svg>
