<svg width="161" height="161" viewBox="0 0 161 161" fill="none" xmlns="http://www.w3.org/2000/svg">
<g clip-path="url(#clip0_8_8)">
<path d="M56.3787 7.76149L68.0165 4.64291C69.5487 4.2372 71.1792 4.4543 72.5518 5.24679C73.9245 6.03929 74.9277 7.34278 75.3425 8.87258L101.489 106.134C103.462 106.619 105.36 107.366 107.135 108.354C110.442 110.266 113.244 112.94 115.309 116.154C117.375 119.367 118.643 123.028 119.009 126.83C119.375 130.632 118.827 134.467 117.413 138.016C115.998 141.564 113.757 144.724 110.876 147.232L105.298 126.415L100.954 127.579L89.3166 130.697L84.9729 131.861L90.5504 152.678C86.8011 151.947 83.2805 150.332 80.2814 147.966C77.2822 145.6 74.8911 142.553 73.3069 139.077C71.7227 135.601 70.9911 131.797 71.1729 127.981C71.3548 124.166 72.4449 120.448 74.3525 117.139C75.3952 115.395 76.6662 113.799 78.1318 112.393L52.1489 15.0878C51.7432 13.5555 51.9604 11.925 52.7529 10.5523C53.5454 9.17963 54.8489 8.1763 56.3787 7.76149ZM153.05 73.3432C154.58 72.9283 155.883 71.925 156.676 70.5523C157.468 69.1796 157.686 67.5491 157.28 66.0169L154.162 54.379C153.747 52.8492 152.744 51.5457 151.371 50.7532C149.999 49.9607 148.368 49.7436 146.836 50.1493L102.036 62.1105L108.25 85.3043M10.3956 107.925L37.1783 109.532L43.1781 99.1402L60.9626 94.3745L56.5709 77.9831L38.7864 82.7488L28.3949 76.7493L6.00389 91.5335L10.3956 107.925Z" />
</g>
<defs>
<clipPath id="clip0_8_8">
<rect width="160" height="160" fill="white" transform="matrix(-1 0 0 -1 160.326 160.326)"/>
</clipPath>
</defs>
</svg>
