<svg width="160" height="160" viewBox="0 0 160 160" fill="none" xmlns="http://www.w3.org/2000/svg">
<path d="M143.391 23.25L136.766 16.625C136.516 16.375 136.203 16.2656 135.875 16.2656C135.547 16.2656 135.234 16.3906 134.984 16.625L123.094 28.5156C117.925 25.0133 111.822 23.146 105.578 23.1562C97.5781 23.1562 89.5781 26.2031 83.4687 32.3125L67.5469 48.2344C67.3142 48.4693 67.1837 48.7866 67.1837 49.1172C67.1837 49.4478 67.3142 49.7651 67.5469 50L110 92.4531C110.25 92.7031 110.562 92.8125 110.891 92.8125C111.203 92.8125 111.531 92.6875 111.781 92.4531L127.703 76.5312C138.469 65.75 139.734 49.0781 131.5 36.9219L143.391 25.0312C143.875 24.5312 143.875 23.7344 143.391 23.25ZM90.4531 85.4219C90.2182 85.1892 89.9009 85.0587 89.5703 85.0587C89.2397 85.0587 88.9224 85.1892 88.6875 85.4219L78.2812 95.8281L64.1719 81.7188L74.5937 71.2969C75.0781 70.8125 75.0781 70.0156 74.5937 69.5312L68.9062 63.8438C68.6713 63.6111 68.3541 63.4806 68.0234 63.4806C67.6928 63.4806 67.3756 63.6111 67.1406 63.8438L56.7187 74.2656L50 67.5469C49.8834 67.4301 49.7444 67.3381 49.5913 67.2764C49.4383 67.2146 49.2744 67.1844 49.1094 67.1875C48.7969 67.1875 48.4687 67.3125 48.2187 67.5469L32.3125 83.4688C21.5469 94.2344 20.2812 110.922 28.5156 123.078L16.625 134.969C16.3924 135.204 16.2619 135.521 16.2619 135.852C16.2619 136.182 16.3924 136.499 16.625 136.734L23.25 143.359C23.5 143.609 23.8125 143.719 24.1406 143.719C24.4687 143.719 24.7812 143.594 25.0312 143.359L36.9219 131.469C42.1875 135.047 48.3125 136.828 54.4375 136.828C62.4375 136.828 70.4375 133.781 76.5469 127.672L92.4687 111.75C92.9531 111.266 92.9531 110.469 92.4687 109.984L85.75 103.266L96.1719 92.8438C96.6562 92.3594 96.6562 91.5625 96.1719 91.0781L90.4531 85.4219Z"/>
</svg>
