<svg width="250" height="228" viewBox="0 0 250 228" fill="none" xmlns="http://www.w3.org/2000/svg">
<path d="M203 133L244.022 173.773L203 214.546" stroke="#7C3AED" stroke-width="8"/>
<path d="M124.769 202.008C125.729 199.896 126.881 197.176 128.225 193.848C129.569 190.52 130.977 186.936 132.449 183.096C133.921 179.192 135.425 175.224 136.961 171.192C138.497 167.096 139.937 163.224 141.281 159.576C142.625 155.928 143.777 152.664 144.737 149.784C145.761 146.904 146.497 144.696 146.945 143.16C142.913 144.824 139.457 147.352 136.577 150.744C133.697 154.136 131.521 158.392 130.049 163.512C128.577 163 127.233 162.104 126.017 160.824C124.801 159.48 124.001 157.816 123.617 155.832C124.257 152.888 125.441 150.2 127.169 147.768C128.961 145.336 131.201 143.256 133.889 141.528C136.577 139.8 139.681 138.488 143.201 137.592C146.721 136.632 150.497 136.152 154.529 136.152C159.649 136.152 164.353 136.92 168.641 138.456C172.929 139.928 176.609 142.008 179.681 144.696C182.753 147.384 185.153 150.616 186.881 154.392C188.609 158.168 189.473 162.36 189.473 166.968C189.473 173.24 188.321 179.224 186.017 184.92C183.713 190.616 180.577 195.64 176.609 199.992C172.705 204.344 168.161 207.8 162.977 210.36C157.793 212.984 152.353 214.296 146.657 214.296C141.409 214.296 136.897 213.24 133.121 211.128C129.409 209.08 126.625 206.04 124.769 202.008ZM158.657 140.952C155.457 140.952 152.417 141.4 149.537 142.296C152.353 143.32 154.689 144.408 156.545 145.56C158.401 146.648 159.681 147.512 160.385 148.152C159.873 148.856 159.105 150.104 158.081 151.896C157.121 153.688 155.969 155.864 154.625 158.424C153.345 160.984 151.969 163.8 150.497 166.872C149.025 169.88 147.585 172.984 146.177 176.184C142.529 184.312 139.873 190.712 138.209 195.384C136.609 200.056 135.809 203.288 135.809 205.08C136.705 205.4 137.793 205.624 139.073 205.752C140.353 205.88 141.729 205.944 143.201 205.944C148.385 205.944 153.281 204.76 157.889 202.392C162.561 199.96 166.625 196.728 170.081 192.696C173.601 188.664 176.353 183.992 178.337 178.68C180.385 173.304 181.409 167.672 181.409 161.784C181.409 155.192 179.361 150.072 175.265 146.424C171.169 142.776 165.633 140.952 158.657 140.952Z" fill="#334155"/>
<path d="M47.0219 32L6.00002 72.7732L47.0219 113.546" stroke="#7C3AED" stroke-width="8"/>
<path d="M155.624 1.98706L77.6589 226.013" stroke="#7C3AED" stroke-width="8"/>
<path d="M69.4354 97.528C69.4354 95.224 69.7874 92.248 70.4914 88.6C71.2594 84.888 72.2194 80.92 73.3714 76.696C74.5874 72.408 75.9634 68.056 77.4994 63.64C79.0354 59.16 80.6034 54.968 82.2034 51.064C83.8034 47.16 85.3714 43.736 86.9074 40.792C88.4434 37.848 89.8194 35.736 91.0354 34.456C91.6754 34.52 92.5074 34.776 93.5314 35.224C94.6194 35.608 95.7074 36.088 96.7954 36.664C97.8834 37.24 98.8754 37.88 99.7714 38.584C100.667 39.224 101.243 39.832 101.499 40.408C99.6434 42.072 97.7874 44.6 95.9314 47.992C94.1394 51.32 92.3794 55.128 90.6514 59.416C88.9874 63.704 87.4194 68.248 85.9474 73.048C84.4754 77.784 83.1954 82.392 82.1074 86.872C81.0194 91.352 80.1554 95.512 79.5154 99.352C78.9394 103.192 78.6514 106.296 78.6514 108.664C78.6514 109.752 78.7474 110.424 78.9394 110.68C77.5314 110.616 76.5074 110.36 75.8674 109.912C75.2274 109.528 74.7154 109.08 74.3314 108.568C74.0114 108.12 73.6914 107.64 73.3714 107.128C73.1154 106.68 72.6994 106.328 72.1234 106.072C71.6754 105.88 71.2914 105.432 70.9714 104.728C70.6514 104.024 70.3634 103.256 70.1074 102.424C69.9154 101.528 69.7554 100.632 69.6274 99.736C69.4994 98.84 69.4354 98.104 69.4354 97.528Z" fill="#334155"/>
</svg>
